<?xml version="1.0" encoding="UTF-8" standalone="no"?>
<!-- Created with Inkscape (http://www.inkscape.org/) -->

<svg
   width="158.68625mm"
   height="158.70969mm"
   viewBox="0 0 158.68625 158.70969"
   version="1.1"
   id="svg1"
   xml:space="preserve"
   inkscape:version="1.3 (0e150ed6c4, 2023-07-21)"
   sodipodi:docname="sheezy - flush.svg"
   xmlns:inkscape="http://www.inkscape.org/namespaces/inkscape"
   xmlns:sodipodi="http://sodipodi.sourceforge.net/DTD/sodipodi-0.dtd"
   xmlns="http://www.w3.org/2000/svg"
   xmlns:svg="http://www.w3.org/2000/svg"><sodipodi:namedview
     id="namedview1"
     pagecolor="#ffffff"
     bordercolor="#000000"
     borderopacity="0.25"
     inkscape:showpageshadow="2"
     inkscape:pageopacity="0.0"
     inkscape:pagecheckerboard="0"
     inkscape:deskcolor="#d1d1d1"
     inkscape:document-units="mm"
     inkscape:zoom="1.684603"
     inkscape:cx="84.886469"
     inkscape:cy="486.46476"
     inkscape:window-width="3840"
     inkscape:window-height="2126"
     inkscape:window-x="3829"
     inkscape:window-y="-11"
     inkscape:window-maximized="1"
     inkscape:current-layer="layer1" /><defs
     id="defs1" /><g
     inkscape:label="Layer 1"
     inkscape:groupmode="layer"
     id="layer1"
     transform="translate(-46.0878,-35.250663)"><path
       style="fill:#000000"
       d="m 162.29597,193.47903 c -2.58365,-0.89285 -4.04943,-2.42721 -4.88576,-5.11434 -0.39758,-1.27742 -0.49387,-2.43337 -0.49387,-5.92885 v -4.34205 h 12.19185 12.19184 l -0.10994,4.82864 c -0.12035,5.28584 -0.31152,6.22869 -1.60748,7.9278 -2.03058,2.66227 -3.59666,3.12133 -10.6096,3.10992 -4.39479,-0.007 -5.5454,-0.0901 -6.67704,-0.48112 z m -79.066084,-23.4477 c -5.557673,-1.02562 -9.267412,-3.60627 -11.446203,-7.96247 -2.186469,-4.37155 -2.02625,-1.47153 -2.114922,-38.2808 l -0.07888,-32.742188 h 12.172812 12.172812 l 0.07115,26.259898 c 0.07792,28.7585 -0.0076,27.29253 1.644011,28.19797 0.738218,0.40471 3.087732,0.44935 27.068284,0.51432 l 26.25989,0.0711 v 12.16583 12.16583 l -31.94844,-0.0239 c -24.893664,-0.0186 -32.357404,-0.0993 -33.800515,-0.36566 z m 73.686454,-11.78129 v -12.17083 h 12.03854 12.03854 v 12.17083 12.17083 h -12.03854 -12.03854 z m 32.01458,0.021 V 146.0792 h 4.33776 c 3.57263,0 4.6363,0.0922 6.03034,0.52278 2.14368,0.66212 3.66471,1.94827 4.63088,3.9158 0.7338,1.49432 0.74487,1.5896 0.8287,7.13678 0.11185,7.40139 -0.33108,9.00092 -3.07123,11.09091 -1.69911,1.29595 -2.64196,1.48713 -7.9278,1.60748 l -4.82865,0.10994 z M 156.8552,111.8818 c -0.065,-23.980549 -0.10962,-26.330063 -0.51433,-27.068281 -0.90543,-1.651565 0.56054,-1.566095 -28.19797,-1.644011 l -26.25989,-0.07114 V 70.92556 58.752748 l 32.74219,0.07887 c 30.81317,0.07423 32.84351,0.10746 34.46198,0.564071 4.80155,1.354639 8.06715,3.875348 9.98239,7.705388 2.19647,4.39246 2.03482,1.476987 2.12352,38.298433 l 0.0789,32.74219 H 169.09916 156.92634 Z M 51.470517,82.572178 c -2.044577,-0.648471 -3.595567,-1.982057 -4.538566,-3.90239 -0.733801,-1.49432 -0.744865,-1.589601 -0.828697,-7.136776 -0.111854,-7.401397 0.331078,-9.000925 3.071232,-11.09091 1.699107,-1.295952 2.641961,-1.48713 7.927797,-1.60748 l 4.828646,-0.109941 v 12.191846 12.191846 l -4.431771,-0.01486 c -3.6035,-0.01208 -4.730216,-0.109519 -6.028641,-0.521335 z M 69.603845,71.069832 V 59.031291 H 81.774678 93.945511 V 71.069832 83.108373 H 81.774678 69.603845 Z m 0.06791,-24.804687 c 0.120351,-5.285836 0.311529,-6.22869 1.607481,-7.927797 2.089985,-2.740154 3.689513,-3.183086 11.09091,-3.071231 5.547175,0.08383 5.642456,0.0949 7.136776,0.828697 1.96753,0.966175 3.253682,2.487198 3.9158,4.630886 0.430573,1.394033 0.522785,2.457701 0.522785,6.030336 v 4.337755 H 81.753665 69.561819 Z"
       id="path1" /></g></svg>
