<?xml version="1.0" encoding="UTF-8" standalone="no"?>
<svg
   version="1.0"
   width="728.69537pt"
   height="698.95758pt"
   viewBox="0 0 728.69537 698.95758"
   preserveAspectRatio="xMidYMid"
   id="svg1"
   sodipodi:docname="toyhouse - flush.svg"
   inkscape:version="1.3 (0e150ed6c4, 2023-07-21)"
   xmlns:inkscape="http://www.inkscape.org/namespaces/inkscape"
   xmlns:sodipodi="http://sodipodi.sourceforge.net/DTD/sodipodi-0.dtd"
   xmlns="http://www.w3.org/2000/svg"
   xmlns:svg="http://www.w3.org/2000/svg">
  <defs
     id="defs1" />
  <sodipodi:namedview
     id="namedview1"
     pagecolor="#ffffff"
     bordercolor="#000000"
     borderopacity="0.25"
     inkscape:showpageshadow="2"
     inkscape:pageopacity="0.0"
     inkscape:pagecheckerboard="0"
     inkscape:deskcolor="#d1d1d1"
     inkscape:document-units="pt"
     inkscape:zoom="1.7728125"
     inkscape:cx="485.951"
     inkscape:cy="463.95205"
     inkscape:window-width="3840"
     inkscape:window-height="2126"
     inkscape:window-x="3829"
     inkscape:window-y="-11"
     inkscape:window-maximized="1"
     inkscape:current-layer="svg1" />
  <g
     transform="matrix(0.09189097,0,0,-0.08997909,-3.2161839,707.95548)"
     fill="#000000"
     stroke="none"
     id="g1">
    <path
       d="M 2009,5894 35,3920 h 628 627 V 2010 100 h 2705 2705 v 1910 1910 l 633,1 h 632 l -737,733 -738,732 v 937 937 h -630 -630 l -2,-309 -3,-310 -621,614 -621,613 z M 4710,2635 v -525 h 500 500 v 525 525 h 220 220 V 1845 530 h -220 -220 v 610 610 H 5210 4710 V 1140 530 H 4500 4290 V 1640 2750 H 3940 3590 V 1640 530 h -220 -220 v 1110 1110 h -365 -365 v 205 205 h 1145 1145 z"
       id="path1" />
  </g>
</svg>
