<?xml version="1.0" encoding="UTF-8" standalone="no"?>
<!-- Created with Inkscape (http://www.inkscape.org/) -->

<svg
   version="1.1"
   id="svg1"
   width="80.495857"
   height="109.31441"
   viewBox="0 0 80.495857 109.31441"
   sodipodi:docname="tef.svg"
   inkscape:version="1.3 (0e150ed6c4, 2023-07-21)"
   xmlns:inkscape="http://www.inkscape.org/namespaces/inkscape"
   xmlns:sodipodi="http://sodipodi.sourceforge.net/DTD/sodipodi-0.dtd"
   xmlns="http://www.w3.org/2000/svg"
   xmlns:svg="http://www.w3.org/2000/svg">
  <defs
     id="defs1" />
  <sodipodi:namedview
     id="namedview1"
     pagecolor="#ffffff"
     bordercolor="#000000"
     borderopacity="0.25"
     inkscape:showpageshadow="2"
     inkscape:pageopacity="0.0"
     inkscape:pagecheckerboard="0"
     inkscape:deskcolor="#d1d1d1"
     inkscape:zoom="17.087349"
     inkscape:cx="33.50432"
     inkscape:cy="57.791295"
     inkscape:window-width="3840"
     inkscape:window-height="2126"
     inkscape:window-x="3829"
     inkscape:window-y="-11"
     inkscape:window-maximized="1"
     inkscape:current-layer="g1" />
  <g
     inkscape:groupmode="layer"
     inkscape:label="Image"
     id="g1"
     transform="translate(0.76276538,1.7327693)">
    <path
       style="fill:#000000"
       d="m 65.744841,101.25851 c -6.400232,-6.324608 -6.400232,-6.324608 -16.75,-6.324608 -11.624644,0 -13.525023,-0.242519 -15.871269,-2.025425 -1.645166,-1.250157 -1.645166,-1.250157 -0.03499,-4.312091 1.890513,-3.595022 3.777799,-5.055677 8.556489,-6.622252 4.155405,-1.362247 4.53568,-2.773783 1.551282,-5.758182 -1.762993,-1.762992 -2.3711,-1.948718 -6.380537,-1.948718 -4.160851,0 -4.68369,0.178228 -8.551282,2.915002 -5.145895,3.641322 -8.76309,5.041371 -9.952362,3.8521 -0.458572,-0.458572 -0.833768,-2.303155 -0.833768,-4.099072 0,-3.265304 0,-3.265304 -4.482702,-4.277626 -6.7682738,-1.52847 -13.18396477,-5.383498 -13.18396477,-7.921913 0,-2.287693 3.75126697,-4.201947 10.80587777,-5.514187 8.427018,-1.567525 14.527456,-3.668785 14.527456,-5.003897 0,-1.590838 -0.954652,-2.235604 -9.793189,-6.614265 C 6.0698372,43.004999 -0.42011077,38.090016 -0.73131377,35.423209 -1.0798208,32.436732 1.4617932,30.564348 7.2011222,29.579456 c 2.719172,-0.46662 5.2249058,-1.098719 5.5682988,-1.404663 0.365838,-0.325942 -1.49739,-2.736554 -4.4999988,-5.822021 -5.890874,-6.053433 -6.621259,-8.303006 -3.124351,-9.622942 1.984741,-0.749156 2,-0.794252 2,-5.9107217 0,-6.71408195 0.818076,-8.5518776 3.8067828,-8.5518776 2.838209,0 5.246188,1.24752975 8.059416,4.1754344 2.033306,2.1161916 2.442413,2.2658554 5.413378,1.9803833 2.189597,-0.2103926 3.383289,-0.034644 3.745518,0.5514551 0.292421,0.4731458 0.750148,3.4977458 1.017172,6.7213315 0.29426,3.55238 0.853355,6.228924 1.419375,6.794944 2.616844,2.616844 6.762517,1.583179 11.624444,-2.898389 5.346043,-4.927811 6.547916,-3.321095 6.550419,8.756892 0.0013,6.070751 -0.114288,6.601375 -2.150921,9.877631 -1.742856,2.803669 -2.152251,4.157847 -2.152251,7.119124 0,3.656877 0,3.656877 7.833333,-2.966392 4.308334,-3.642797 8.714461,-7.558326 9.791394,-8.701174 2.463347,-2.614118 3.398087,-2.61217 4.754014,0.0099 1.176306,2.274724 0.993199,5.104511 -0.783395,12.106807 -0.930017,3.665586 -0.910801,3.957999 0.37916,5.769581 2.513258,3.529543 1.778504,4.955413 -5.402415,10.483989 -2.454229,1.889506 -3.179314,2.912433 -3.504088,4.943455 -0.395205,2.47148 1.12174,7.941694 2.202312,7.941694 0.252382,0 2.514289,-1.35 5.02646,-3 4.614429,-3.030767 6.728529,-3.568554 9.080389,-2.309878 1.03514,0.553992 1.2895,1.414002 1.2895,4.359892 0,3.806803 -0.88757,6.098339 -4.67555,12.071367 -1.6285,2.567875 -1.991114,3.853374 -1.991114,7.058603 0,3.918938 0,3.918938 6.081964,10.612808 6.70703,7.381811 6.76202,7.852341 0.91804,7.854941 -3.31662,10e-4 -3.36544,-0.0302 -9.733569,-6.32312 z"
       id="path1" />
  </g>
</svg>
