<?xml version="1.0" encoding="UTF-8" standalone="no"?>
<!-- Created with Inkscape (http://www.inkscape.org/) -->

<svg
   width="53.856258mm"
   height="67.033104mm"
   viewBox="0 0 53.856258 67.033104"
   version="1.1"
   id="svg1"
   xml:space="preserve"
   inkscape:version="1.3 (0e150ed6c4, 2023-07-21)"
   sodipodi:docname="carrd solid - flush.svg"
   xmlns:inkscape="http://www.inkscape.org/namespaces/inkscape"
   xmlns:sodipodi="http://sodipodi.sourceforge.net/DTD/sodipodi-0.dtd"
   xmlns="http://www.w3.org/2000/svg"
   xmlns:svg="http://www.w3.org/2000/svg"><sodipodi:namedview
     id="namedview1"
     pagecolor="#ffffff"
     bordercolor="#000000"
     borderopacity="0.25"
     inkscape:showpageshadow="2"
     inkscape:pageopacity="0.0"
     inkscape:pagecheckerboard="0"
     inkscape:deskcolor="#d1d1d1"
     inkscape:document-units="mm"
     inkscape:zoom="2.3823884"
     inkscape:cx="-54.986837"
     inkscape:cy="120.25747"
     inkscape:window-width="3840"
     inkscape:window-height="2126"
     inkscape:window-x="3829"
     inkscape:window-y="-11"
     inkscape:window-maximized="1"
     inkscape:current-layer="layer1" /><defs
     id="defs1" /><g
     inkscape:label="Layer 1"
     inkscape:groupmode="layer"
     id="layer1"
     transform="translate(-137.51757,-73.527846)"><path
       style="fill:#000000"
       d="m 158.27025,140.5397 c -0.0684,-0.0684 -0.094,-5.75431 -0.094,-20.86668 V 98.900354 l 0.23283,-0.12879 c 0.12806,-0.0708 7.55555,-3.64486 16.50553,-7.94227 11.39217,-5.47004 16.29943,-7.78673 16.36183,-7.72433 0.14044,0.14043 0.12384,41.577576 -0.0167,41.692116 -0.0869,0.0708 -28.79891,13.90099 -31.95232,15.39099 -0.69128,0.32664 -0.96826,0.42054 -1.03717,0.35163 z m 16.45832,-16.14684 c 11.70326,-5.65634 10.54725,-5.06973 10.77244,-5.46646 0.13481,-0.23752 0.18951,-0.47392 0.1905,-0.82338 0.003,-0.97432 -0.53888,-1.53808 -1.48007,-1.54049 -0.49928,-10e-4 -0.67691,0.0803 -10.11787,4.64785 -5.28532,2.55703 -9.69352,4.70331 -9.79601,4.76951 -0.26893,0.1737 -0.53332,0.77643 -0.53332,1.21579 0,0.44877 0.28354,1.05337 0.60306,1.28591 0.29617,0.21555 0.71923,0.31046 1.1326,0.2541 0.20321,-0.0277 3.8944,-1.7647 9.22867,-4.34283 z m 0.635,-10.75263 c 5.23875,-2.53096 9.65287,-4.69532 9.80915,-4.8097 0.39334,-0.28788 0.54529,-0.69381 0.50377,-1.34585 -0.0554,-0.87027 -0.4955,-1.30812 -1.37083,-1.36385 l -0.53876,-0.0343 -9.68383,4.67679 c -5.32611,2.57223 -9.75589,4.73854 -9.84396,4.81402 -0.0881,0.0755 -0.23011,0.28963 -0.31564,0.47589 -0.35504,0.77318 -0.0859,1.68421 0.60723,2.05537 0.7866,0.42123 0.27687,0.63148 10.83287,-4.46836 z m 0.25277,-10.59359 c 9.43945,-4.571126 9.6982,-4.702746 9.88808,-5.030016 0.16306,-0.28105 0.19082,-0.43436 0.16959,-0.9366 -0.0211,-0.50027 -0.0639,-0.65096 -0.25579,-0.9026 -0.30187,-0.39578 -0.85605,-0.61191 -1.39807,-0.54527 -0.29592,0.0364 -2.91444,1.26494 -9.95209,4.669286 -5.25278,2.54095 -9.64194,4.67981 -9.75368,4.75302 -0.11174,0.0732 -0.28123,0.2944 -0.37665,0.49151 -0.40435,0.83526 -0.0491,1.8645 0.75784,2.19555 0.0698,0.0286 0.37465,0.0402 0.67733,0.0256 0.53396,-0.0257 0.83872,-0.16617 10.24344,-4.72047 z m -29.29344,15.80214 c -4.58682,-1.92516 -8.44444,-3.55903 -8.5725,-3.63082 l -0.23283,-0.13053 V 94.350534 c 0,-16.48798 0.0217,-20.75423 0.10583,-20.82148 0.0757,-0.0605 4.74555,2.14665 16.42797,7.76467 8.97717,4.31708 16.36666,7.89377 16.4211,7.9482 0.0681,0.0681 0.0717,0.12624 0.0114,0.18649 -0.0746,0.0747 -4.1849,2.0765 -7.27357,3.54251 l -0.93489,0.44373 -8.37844,-3.82485 c -4.60814,-2.10368 -8.54989,-3.88004 -8.75944,-3.94747 -0.45983,-0.14799 -1.12587,-0.0375 -1.48714,0.24665 -0.2955,0.23244 -0.54114,0.78091 -0.54114,1.20824 0,0.42076 0.24443,0.97485 0.52869,1.19845 0.11826,0.093 3.42822,1.62954 7.35547,3.41449 3.92725,1.78495 7.19597,3.29624 7.26382,3.35844 0.18478,0.16936 0.0744,0.24538 -1.4574,1.00329 -1.72168,0.85188 -1.6949,0.81289 -1.7563,2.55727 -0.0233,0.66143 -0.0804,1.23663 -0.127,1.27821 -0.0517,0.0462 -1.97963,-0.69242 -4.953,-1.89752 -5.17268,-2.09646 -5.2879,-2.13242 -5.94853,-1.85639 -0.58645,0.24503 -0.98683,1.00355 -0.86696,1.64247 0.0791,0.42143 0.33139,0.87877 0.56428,1.02275 0.10865,0.0672 2.67376,1.12176 5.70024,2.343536 l 5.50271,2.22143 0.068,0.32345 c 0.10633,0.50562 0.0369,6.51921 -0.0766,6.63256 -0.0695,0.0694 -1.37668,-0.42257 -4.93857,-1.85854 -4.35219,-1.75458 -4.89285,-1.95275 -5.3242,-1.9515 -0.93017,0.003 -1.49265,0.57657 -1.49307,1.52329 -2.4e-4,0.52048 0.19058,0.93183 0.55994,1.20713 0.12336,0.0919 2.69461,1.16273 5.71388,2.37951 l 5.48958,2.21234 0.0597,0.33867 c 0.078,0.442 0.0778,7.34877 -1.7e-4,7.78842 -0.0359,0.20243 -0.11028,0.34423 -0.18562,0.35393 -0.0691,0.009 -3.87856,-1.55897 -8.46538,-3.48413 z"
       id="path1" /></g></svg>
