<?xml version="1.0" encoding="UTF-8" standalone="no"?>
<!-- Generator: Adobe Illustrator 14.0.0, SVG Export Plug-In . SVG Version: 6.00 Build 43363)  -->

<svg
   version="1.1"
   id="Layer_1"
   x="0px"
   y="0px"
   width="774.96997"
   height="418.771"
   viewBox="0 0 774.96997 418.77099"
   enable-background="new 0 0 800 453.333"
   xml:space="preserve"
   sodipodi:docname="side7 - flush.svg"
   inkscape:version="1.3 (0e150ed6c4, 2023-07-21)"
   xmlns:inkscape="http://www.inkscape.org/namespaces/inkscape"
   xmlns:sodipodi="http://sodipodi.sourceforge.net/DTD/sodipodi-0.dtd"
   xmlns="http://www.w3.org/2000/svg"
   xmlns:svg="http://www.w3.org/2000/svg"><defs
   id="defs2" /><sodipodi:namedview
   id="namedview2"
   pagecolor="#ffffff"
   bordercolor="#000000"
   borderopacity="0.25"
   inkscape:showpageshadow="2"
   inkscape:pageopacity="0.0"
   inkscape:pagecheckerboard="0"
   inkscape:deskcolor="#d1d1d1"
   inkscape:zoom="2.97"
   inkscape:cx="387.54209"
   inkscape:cy="208.92256"
   inkscape:window-width="3840"
   inkscape:window-height="2126"
   inkscape:window-x="3829"
   inkscape:window-y="-11"
   inkscape:window-maximized="1"
   inkscape:current-layer="Layer_1" />&#10;<g
   id="Layer_2"
   display="none"
   transform="translate(-12.514,-17.948)">&#10;	<rect
   x="-16"
   y="-184.444"
   display="inline"
   width="825.55499"
   height="825.55499"
   id="rect1" />&#10;</g>&#10;<g
   id="g2"
   transform="translate(-12.514,-17.948)">&#10;	<path
   fill="currentColor"
   d="M 465.356,128.836 H 164.288 c -7.027,0 -12.496,0.726 -16.417,2.168 -3.93,1.452 -7.123,3.408 -9.602,5.885 -5.788,5.789 -8.673,13.009 -8.673,21.682 0,9.089 3.504,16.523 10.531,22.301 2.478,2.072 5.469,3.62 8.982,4.646 3.504,1.036 8.566,1.549 15.178,1.549 h 183.987 c 23.539,0 43.46,3.407 59.779,10.221 16.31,6.815 30.045,16.009 41.195,27.567 11.15,11.568 19.92,24.781 26.328,39.648 6.397,14.867 9.602,30.566 9.602,47.08 0,15.283 -2.787,29.947 -8.363,43.984 -5.575,14.043 -13.115,26.637 -22.61,37.787 -11.567,13.223 -25.922,23.754 -43.055,31.594 -17.142,7.85 -38.098,11.77 -62.876,11.77 H 23.665 v -107.17 h 304.786 c 8.673,0 15.381,-0.928 20.133,-2.787 4.743,-1.857 8.566,-4.434 11.461,-7.744 4.539,-5.361 6.813,-11.77 6.813,-19.203 0,-9.08 -2.894,-16.514 -8.673,-22.303 -2.894,-3.299 -6.504,-5.672 -10.84,-7.123 -4.337,-1.443 -10.639,-2.168 -18.895,-2.168 H 158.093 c -28.09,0 -50.7,-3.408 -67.833,-10.223 -17.143,-6.814 -31.284,-16 -42.435,-27.566 C 36.674,218.874 28.002,205.758 21.806,191.094 15.612,176.44 12.514,160.43 12.514,143.085 c 0,-16.93 3.193,-32.833 9.602,-47.701 C 28.514,80.516 37.294,67.304 48.444,55.737 59.596,44.18 73.63,34.984 90.569,28.17 107.498,21.356 130.003,17.948 158.092,17.948 h 307.264 z"
   id="path1" />&#10;	<path
   fill="currentColor"
   d="M 312.962,128.836 V 17.948 h 380.981 c 16.93,0 31.177,2.584 42.745,7.744 11.557,5.169 21.265,12.292 29.115,21.372 7.018,7.85 12.39,16.629 16.106,26.328 3.716,9.708 5.575,20.133 5.575,31.284 0,8.266 -1.549,17.036 -4.646,26.328 -3.097,9.292 -9.602,21.169 -19.513,35.621 L 590.49,420.613 c -2.479,3.311 -4.337,6.193 -5.576,8.672 -1.239,2.479 -2.274,4.957 -3.097,7.434 H 440.575 c 1.239,-2.885 2.574,-5.672 4.026,-8.361 1.442,-2.682 3.194,-5.672 5.266,-8.982 l 190.8,-270.096 c 1.646,-2.062 2.682,-3.92 3.099,-5.575 0.406,-1.646 0.618,-3.3 0.618,-4.956 0,-2.478 -0.725,-4.743 -2.167,-6.814 -1.452,-2.062 -4.443,-3.098 -8.982,-3.098 H 312.962 Z"
   id="path2" />&#10;</g>&#10;</svg>
