<?xml version="1.0" encoding="UTF-8" standalone="no"?>
<!-- Created with Inkscape (http://www.inkscape.org/) -->

<svg
   version="1.1"
   id="svg1"
   width="360.76938"
   height="329.33331"
   viewBox="0 0 360.76938 329.33332"
   sodipodi:docname="aliciaonline.svg"
   inkscape:version="1.3 (0e150ed6c4, 2023-07-21)"
   xmlns:inkscape="http://www.inkscape.org/namespaces/inkscape"
   xmlns:sodipodi="http://sodipodi.sourceforge.net/DTD/sodipodi-0.dtd"
   xmlns="http://www.w3.org/2000/svg"
   xmlns:svg="http://www.w3.org/2000/svg">
  <defs
     id="defs1" />
  <sodipodi:namedview
     id="namedview1"
     pagecolor="#ffffff"
     bordercolor="#000000"
     borderopacity="0.25"
     inkscape:showpageshadow="2"
     inkscape:pageopacity="0.0"
     inkscape:pagecheckerboard="0"
     inkscape:deskcolor="#d1d1d1"
     inkscape:zoom="2.8284271"
     inkscape:cx="148.31565"
     inkscape:cy="129.57732"
     inkscape:window-width="3840"
     inkscape:window-height="2126"
     inkscape:window-x="3829"
     inkscape:window-y="-11"
     inkscape:window-maximized="1"
     inkscape:current-layer="g1" />
  <g
     inkscape:groupmode="layer"
     inkscape:label="Image"
     id="g1"
     transform="translate(-7.7159263,-18.031219)">
    <path
       style="fill:#030303;stroke:none"
       d="m 228.48529,18.031219 v 1.33334 c 12.75573,8.10677 21.20314,17.81577 21.33333,33.33333 -23.34045,-19.84198 -44.27041,-7.55595 -70.66667,-6.72428 -10.2873,0.32411 -18.83105,-5.45321 -20,-15.94239 h -1.33333 c -3.66399,15.38977 1.8386,30.33179 18.66666,33.33334 v 1.33333 c -37.7078,0.31217 -60.63873,50.530151 -97.333331,26.66666 0.58,11.156621 7.57542,18.023601 17.33333,22.666671 v 1.33333 c -17.92826,7.46417 -51.64048,20.56295 -53.33333,-12 h -1.33333 c -10.39764,27.76379 10.10887,43.92857 36,44 v 1.33333 c -15.58674,6.59945 -43.78233,49.70091 -59.08231,19.98045 -1.75127,-3.40188 -2.07753,-6.90454 -2.25103,-10.64711 -26.95247,17.80959 17.0875,43.97041 14.27469,59.99999 -0.97781,5.57235 -8.46305,10.28166 -7.71399,15.87551 1.34949,10.07774 26.89514,14.12569 34.77264,15.55866 21.64631,3.9376 43.754331,2.94423 65.333331,7.51336 52.08734,11.02897 91.72457,35.87604 130.66667,71.71914 h 1.33333 c 12.71127,-22.93191 -8.39799,-54.8987 -16.71399,-76 -5.50136,-13.95935 -0.22979,-23.76831 -0.15741,-37.33333 0.0291,-5.45386 -4.24623,-10.6604 -5.40946,-16 -2.44757,-11.23515 0.72762,-20.37812 4.94753,-30.66667 h 1.33333 c -5.64766,17.81607 -2.88322,45.22001 17.33334,53.1358 9.76086,3.82188 22.04999,-1.89561 30.38271,5.90227 15.65139,14.64674 11.33897,36.86287 38.95062,38.29526 -0.23614,-9.76831 -4.58994,-13.66563 -13.33333,-17.33333 v -1.33333 c 14.77561,-1.29342 20.85297,22.48305 35.92696,16.34259 6.11699,-2.49178 15.81551,-23.32298 14.30969,-29.65638 -1.48116,-6.22963 -8.55822,-9.94789 -12.39819,-14.69136 -6.0376,-7.45815 -9.53908,-16.51129 -13.03703,-25.32819 -7.5697,-19.08007 -3.81295,-38.65856 -10.13476,-57.33333 16.00466,4.61064 24.19926,10.5833 41.33333,6.66667 v -1.33333 c -19.04014,-0.15975 -24.4943,-16.27625 -40,-24 l 18.66667,-4 c -8.05416,-10.19204 -19.42436,-6.65676 -30.66667,-9.33333 6.77453,-12.856531 10.21647,-31.855611 -0.52057,-43.748981 -6.87421,-7.61453 -23.73397,-11.22988 -24.81277,2.41565 h 1.33334 c 7.92157,-7.9563 16.26153,3.42012 15.79732,12 -0.57383,10.60611 -10.07953,13.14269 -16.42489,5.30657 -9.7587,-12.05139 -7.98936,-30.90913 -19.37243,-41.30657 v 22.66666 c -8.11788,-23.93363 -16.29476,-40.41904 -44,-44 m 80,128.000001 c 10.39211,8.54012 9.37431,12.01013 6.66667,24 h -1.33334 c -4.23293,-6.47919 -10.58209,-16.79155 -5.33333,-24 M 12.485279,246.03121 c 7.21833,18.6319 31.51928,28.98954 49.33334,34.6286 31.48361,9.96617 64.478901,7.37417 96.000001,19.27161 19.57269,7.38759 39.27633,16.88395 57.33333,27.44857 10.78976,6.31274 21.50391,16.06229 33.33334,19.98455 -5.6553,-23.58982 -31.49077,-37.48244 -50.66667,-49.06172 -24.48223,-14.78349 -50.12409,-26.4692 -78.66667,-30.53807 -16.32923,-2.3278 -33.005141,-1.0616 -49.333331,-4.13889 -20.30521,-3.8268 -37.75978,-12.66022 -57.33334,-17.59465 z"
       id="path2" />
  </g>
</svg>
